<mxfile host="app.diagrams.net" modified="2020-08-30T04:50:01.058Z" agent="5.0 (Macintosh; Intel Mac OS X 10_15_6) AppleWebKit/605.1.15 (KHTML, like Gecko) Version/13.1.2 Safari/605.1.15" etag="XjuUWAD_nwHXHZpsMUM4" version="13.6.5" type="github">
  <diagram id="Kg9v2PKGdZfVGiz0Gp11" name="第 1 页">
    <mxGraphModel dx="890" dy="844" grid="0" gridSize="10" guides="1" tooltips="1" connect="1" arrows="1" fold="1" page="1" pageScale="1" pageWidth="827" pageHeight="1169" math="0" shadow="0">
      <root>
        <mxCell id="0" />
        <mxCell id="1" parent="0" />
        <mxCell id="a1iLULeqpFFVg6pSqvtH-1" value="" style="rounded=0;whiteSpace=wrap;html=1;" vertex="1" parent="1">
          <mxGeometry x="183" y="214" width="528" height="64" as="geometry" />
        </mxCell>
        <mxCell id="a1iLULeqpFFVg6pSqvtH-2" value="&lt;b&gt;&lt;font style=&quot;font-size: 14px&quot;&gt;环境数据可视化系统表现层&lt;/font&gt;&lt;/b&gt;" style="text;html=1;align=center;verticalAlign=middle;resizable=0;points=[];autosize=1;" vertex="1" parent="1">
          <mxGeometry x="339" y="214" width="178" height="19" as="geometry" />
        </mxCell>
      </root>
    </mxGraphModel>
  </diagram>
</mxfile>
